# xmcd CD database file
#
# Track frame offsets:
#	150
#	18325
#	35253
#	58608
#	89748
#	107300
#	128503
#	142225
#	165637
#	178642
#
# Disc length: 2897 seconds
#
# Revision: 0
# Processed by: cddbd v1.5.1PL0 Copyright (c) Steve Scherf et al.
# Submitted via: CDex 1.50
#
DISCID=7e0b4f0a
DTITLE=Alex Brown - Introducing Alex Brown
DYEAR=2004
DGENRE=Jazz
TTITLE0=Oleo
TTITLE1=Jungle Samba
TTITLE2=Billie's Bounce
TTITLE3=A Minor Song
TTITLE4=Moonlight In Vermont
TTITLE5=In Your Own Sweet Way
TTITLE6=I Got Rhythm
TTITLE7=Chelsea Bridge
TTITLE8=Buzzy
TTITLE9=Spain
EXTD=YEAR: 2004
EXTT0=
EXTT1=
EXTT2=
EXTT3=
EXTT4=
EXTT5=
EXTT6=
EXTT7=
EXTT8=
EXTT9=
PLAYORDER=
